<?xml version="1.0" encoding="UTF-8"?>
<svg width="128pt" height="128pt" version="1.1" viewBox="0 0 128 128" xmlns="http://www.w3.org/2000/svg">
 <g fill="#007335">
  <path d="m64 14.508c-27.289 0-49.492 22.203-49.492 49.492s22.203 49.492 49.492 49.492 49.492-22.203 49.492-49.492c0.003906-27.289-22.199-49.492-49.492-49.492zm0 93.867c-24.469 0-44.371-19.906-44.371-44.375s19.906-44.375 44.371-44.375c24.469 0 44.375 19.906 44.375 44.375s-19.906 44.375-44.375 44.375z"/>
  <path d="m97.195 58.254c-0.17578-0.074218-4.3672-1.7812-9.9414-1.7812-4.7539 0-9.0273 1.2266-12.707 3.6523-2.5898 1.707-4.3633 4.3203-4.9883 7.3594-0.56641 2.7578-0.12109 5.5625 1.2422 7.9922-1.1719 1.3477-2.2617 2.8789-3.1133 4.6211-0.48047-1.7266-1.2422-3.6758-2.4141-5.6875 4.6914-5.9883 4.6055-14.668-0.61719-20.559-8.7773-9.9023-21.824-10.969-27.027-10.969-1.8711 0-3.0195 0.12891-3.0664 0.13281-0.52734 0.058594-0.96484 0.44141-1.0938 0.95703-0.1875 0.73438-4.4492 18.121 7.1406 31.199 3.0469 3.4375 7.4336 5.4102 12.027 5.4102 3.9258 0 7.7109-1.4375 10.652-4.043 0.074219-0.066406 0.13672-0.13672 0.20703-0.20312 2.7969 5.1445 2.4688 9.6133 2.4414 9.9453v0.007812c-0.066406 0.70313 0.45312 1.3281 1.1523 1.3945 0.039062 0.003906 0.082031 0.003906 0.12109 0.003906 0.65234 0 1.207-0.49609 1.2734-1.1562v-0.003906c0.33203-3.5391 1.9102-6.4727 3.8438-8.8359 2.7539 3.3008 5.8242 4.0469 8.0312 4.0469 3.2461 0 5.9453-1.5469 6.9609-2.2148 10.16-6.6914 10.648-19.504 10.668-20.047 0.011719-0.53516-0.30078-1.0195-0.79297-1.2227zm-44.477 5.0391c-0.63672-0.30859-1.4023-0.042969-1.7109 0.58984-0.30859 0.63672-0.042968 1.4023 0.58984 1.7109 5.0898 2.4766 8.3789 5.5273 10.512 8.5156-0.17188 0.16797-0.33203 0.34375-0.51562 0.50391-2.4727 2.1914-5.6523 3.3984-8.9531 3.3984-3.8672 0-7.5508-1.6562-10.113-4.5469-9.2578-10.445-7.4375-24.359-6.7617-27.98 0.46875-0.027344 1.0977-0.046875 1.8633-0.046875 4.8555 0 17.023 0.98438 25.113 10.109 4.1875 4.7266 4.4414 11.594 1.0234 16.586-2.3516-3.1523-5.8398-6.3047-11.047-8.8398zm33.191 14.09c-0.81641 0.53906-2.9961 1.7891-5.5508 1.7891-2.4023 0-4.5078-1.1445-6.2852-3.3984 3.4883-3.3828 7.3086-5.1016 7.375-5.1328 0.64453-0.28516 0.94141-1.0391 0.66016-1.6875-0.28516-0.64453-1.0312-0.94141-1.6836-0.66016-0.29297 0.125-4.0977 1.8359-7.7422 5.2305-0.78125-1.7266-1.0078-3.6445-0.61719-5.5352 0.48828-2.3672 1.8672-4.4062 3.8867-5.7344 3.2539-2.1445 7.0547-3.2266 11.297-3.2266 3.6406 0 6.6797 0.82031 8.0977 1.2812-0.30859 2.9219-1.8711 12.094-9.4375 17.074z"/>
 </g>
</svg>
