<?xml version="1.0" encoding="UTF-8"?>
<svg width="1200pt" height="1200pt" version="1.1" viewBox="0 0 1200 1200" xmlns="http://www.w3.org/2000/svg">
 <defs>
  <clipPath id="a">
   <path d="m222.14 222.14h755.71v755.71h-755.71z"/>
  </clipPath>
 </defs>
 <g clip-path="url(#a)">
  <path d="m600 222.14c-208.59 0-377.86 169.27-377.86 377.86 0 208.59 169.27 377.86 377.86 377.86 208.59 0 377.86-169.27 377.86-377.86 0-208.59-169.27-377.86-377.86-377.86zm0 15.742c200.09 0 362.11 162.04 362.11 362.11 0 200.09-162.03 362.11-362.11 362.11-200.08 0-362.11-162.03-362.11-362.11 0-200.08 162.03-362.11 362.11-362.11zm35.18 175.43c-2.1836 0.015625-4.3281 0.32812-6.3633 0.86328-12.66 3.418-20.062 16.234-16.668 28.902 0.015624 0 0.046874 0.21875 0.0625 0.21875 0 0 0.058593 0.17578 0.15234 0.46094 1.0977 3.543-0.42578 7.3711-3.6602 9.1914-6.832 3.8555-10.949 10.684-11.684 18.145 22.906 1.9219 42.184 17.871 48.34 40.004 13.664 5.8984 24.734 16.191 31.547 29 3.6406-5.0078 8.875-8.5312 14.332-11.562-0.10938-7.0938 0.28516-14.312 3.875-20.512 1.1367-1.9648 2.5898-3.6523 4.1484-5.2266 0.51953-3.2656 0.49219-6.5391-0.33594-9.6562-1.3867-5.1914-4.4961-9.7656-8.8281-12.945-2.9688-2.1797-4.0273-6.125-2.5508-9.5 2.1562-4.9062 2.5781-10.383 1.1992-15.562-2.8086-10.441-12.246-17.621-23.062-17.465-3.8398 0-7.1523-2.6797-7.8398-6.457-0.015625 0-0.046875-0.27344-0.09375-0.46094-2.7734-10.238-11.93-17.277-22.539-17.438zm150.43 41.055v0.027344c-8.6523-0.20313-16.68 4.3164-21.004 11.809-0.078125 0.16016-0.16406 0.28906-0.24609 0.46094-1.6875 3.3672-5.5312 5.082-9.1602 4.0586-10.422-2.9062-21.375 1.582-26.785 10.949-2.6914 4.6484-3.7305 10.062-2.9219 15.375 0.55469 3.6406-1.4883 7.1797-4.918 8.5156-4.9922 1.9492-9.1562 5.543-11.84 10.18-2.6953 4.6562-3.7344 10.09-2.9219 15.406 0.55469 3.6406-1.4883 7.1797-4.918 8.5195-4.9922 1.9453-9.1562 5.5391-11.84 10.176-5.3984 9.3711-3.793 21.094 3.9336 28.66 1.5391 1.4961 2.4023 3.5703 2.3711 5.7188h78.566c-0.03125-0.88281-0.03125-1.7617-0.15625-2.6445-0.55469-3.6406 1.4922-7.1797 4.9219-8.5156 4.9922-1.9492 9.1523-5.5117 11.836-10.148h0.03125c2.6953-4.6562 3.707-10.086 2.8906-15.406-0.57031-3.6523 1.4766-7.2109 4.9219-8.5508 4.9922-1.9375 9.1797-5.5156 11.867-10.145 5.3945-9.375 3.7695-21.102-3.9648-28.66-2.7656-2.7031-3.1602-7.0195-0.92188-10.18 0.078126-0.15625 0.125-0.17969 0.18359-0.27734 6.5234-11.355 2.7148-25.621-8.6094-32.195h-0.0625c-3.4258-1.9844-7.2969-2.9766-11.254-3.1328zm-193.11 32.07c-17.492 0.011719-32.539 11.504-37.516 28.012 2.1641 3.9531 3.5898 8.3555 4.7031 12.793 6.8945 1.7266 13.781 3.9688 18.852 9.043h0.03125c5.0352 5.0586 7.2656 11.926 8.9766 18.785 6.8828 1.7266 13.758 3.9805 18.82 9.043h0.03125c1.6445 1.6523 3.0547 3.457 4.3672 5.3516v-56.09c0-4.3477 3.5234-7.8711 7.8711-7.8711 2.7344 0 5.3398 0.45313 7.9961 0.76563-6.8359-12-19.652-19.832-34.133-19.832zm-108.95 20.695c-6.1797 0.15625-12.031 2.5898-16.359 6.918-9.2852 9.2891-9.2852 24.109 0 33.395 0.19922 0.19141 0.39062 0.36328 0.58594 0.55469 2.6758 2.5312 3.2383 6.582 1.3516 9.7461-5.0234 8.5-3.9609 18.883 2.0312 26.477h129.55c-1.1484-3.3164-2.9531-6.3789-5.4727-8.918-3.8008-3.8047-8.7969-6.2109-14.145-6.7969-3.6641-0.40625-6.5547-3.3125-6.9492-6.9766-0.58203-5.3203-2.9688-10.258-6.7344-14.055-3.8047-3.8047-8.7969-6.2148-14.145-6.7969-3.6562-0.40625-6.5391-3.293-6.9492-6.9492-0.58594-5.3164-2.9883-10.289-6.7656-14.082-7.6562-7.6367-19.387-9.1094-28.691-3.5977-3.2617 1.9258-7.4375 1.2578-9.9297-1.6016-0.17969-0.1875-0.23047-0.21094-0.33984-0.36719-4.5156-4.5195-10.648-7.1055-17.035-6.9492zm142.96 12.176v64.914h38.684c1.957-5.0117 3.3203-10.207 3.3203-15.742 0-23.086-18.598-45.148-42.004-49.172zm-180.2 18.113c-19.703 2.1914-34.949 18.586-34.961 38.898 0.003907 2.6719 0.37891 5.293 0.92188 7.9023h41.051c-3.2852-9.3203-2.7695-19.793 1.1992-29.336-4.1914-5.2188-6.8789-11.258-8.2109-17.465zm-42.836 62.605c-4.3477 0-7.8711 3.5273-7.8711 7.875 0 6.25 0.53516 12.355 1.3516 18.293 0.066407 0.41016 0.12891 1.0898 0.27734 2.0312 0.17578 1.1328 0.53516 2.1992 0.73828 3.3203h131.37c10.645-0.15625 10.645 15.895 0 15.746h-127.74c0.22656 0.78516 0.47266 1.9062 0.98438 3.4414 0.23437 0.69531 0.56641 1.3711 0.98437 1.9688l0.49219 0.73828c1.1445 3.2305 2.5352 6.4062 3.875 9.5938h86.684c10.645-0.15625 10.645 15.895 0 15.746h-78.875c0.72656 1.2422 1.2852 2.5469 2.0625 3.7812 0.86328 1.3672 1.3477 1.8906 1.1992 1.6602 6.3672 9.8438 14.129 18.961 22.848 27.461 5.0703 5.0195 6.3164 6.5117 10.73 10.637 2.5625 2.1602 5.1406 4.0508 7.5039 5.8438 0.38672 0.30078 0.40625 0.29688 0.21484 0.15234 5.1211 3.8789 10.586 7.6367 16.359 11.195-1.457 3.0586-2.3398 6.4414-2.3398 10.023 0 2.7891 0.60156 5.4102 1.5078 7.9023h-51.969c-2.1055-0.027344-4.1367 0.78906-5.6367 2.2656-1.5 1.4805-2.3438 3.5-2.3438 5.6055 0 2.1094 0.84375 4.1289 2.3438 5.6094 1.5 1.4766 3.5312 2.293 5.6367 2.2656h404.58c2.1055 0.027344 4.1367-0.78906 5.6367-2.2656 1.5-1.4805 2.3477-3.5 2.3477-5.6094 0-2.1055-0.84766-4.125-2.3477-5.6055-1.5-1.4766-3.5312-2.293-5.6367-2.2656h-103.72c0.91016-2.4922 1.5078-5.1133 1.5078-7.9023 0-3.582-0.87891-6.9648-2.3359-10.023 5.7734-3.5586 11.234-7.3164 16.359-11.195-0.19922 0.16016-0.17969 0.16406 0.21484-0.15234 2.3594-1.793 4.9414-3.6836 7.5039-5.8438l2.9805-2.9219c12.176-10.645 22.238-22.324 30.598-35.238-0.22266 0.34766 0.25781-0.15625 1.168-1.5977h0.03125c5.8672-9.332 10.207-19.152 13.746-29.121l0.49219-0.73828c0.41797-0.59766 0.74609-1.2734 0.98438-1.9688 0.51953-1.5742 0.82422-2.8477 1.1055-3.7812 0.125-0.42578 0.17578-0.64453 0.18359-0.67578 1.7695-5.9883 3.1797-12.113 4.1211-18.328 0.10938-0.69141 0.13672-1.1328 0.15234-1.2617 0.86719-6.1328 1.4141-12.402 1.4141-18.785 0-4.3477-3.5234-7.875-7.8711-7.875zm94.312 141.67h204.98c4.4141 0 7.7188 3.3984 7.7188 7.8398 0 4.5-3.375 7.8711-7.875 7.8711h-204.67c-4.4961 0-7.8711-3.3711-7.8711-7.8711 0-4.4414 3.3047-7.7578 7.7188-7.8398zm-126.72 15.742c-4.3438 0.22656-7.6797 3.9297-7.4609 8.2734 0.22266 4.3438 3.918 7.6875 8.2617 7.4727h15.066c2.1055 0.035156 4.1406-0.77344 5.6445-2.2461 1.5078-1.4727 2.3594-3.4883 2.3672-5.5977 0.007813-2.1055-0.82812-4.125-2.3242-5.6133-1.4922-1.4844-3.5195-2.3086-5.625-2.2891h-0.0625-15.066c-0.26563-0.011718-0.53516-0.011718-0.80078 0z" fill="#007335"/>
 </g>
</svg>
