<svg width="110" height="110" viewBox="0 0 110 110" fill="none" xmlns="http://www.w3.org/2000/svg">
<g clip-path="url(#clip0_7_2)">
<path d="M54.6738 -0.000249473C40.17 -0.00452012 26.2654 5.75237 16.007 16.0068C5.75306 26.2564 -0.0120216 40.1621 -0.0120216 54.6604C-0.0162922 69.1641 5.74486 83.0687 15.995 93.3271C26.2489 103.581 40.1547 109.342 54.653 109.342C69.1567 109.342 83.0613 103.585 93.3154 93.3304C103.569 83.0764 109.33 69.1707 109.33 54.6724C109.317 40.1774 103.552 26.2805 93.3066 16.0308C83.0615 5.78112 69.1644 0.01615 54.6738 -0.00134277V-0.000249473ZM54.6738 107.246C40.7211 107.25 27.3456 101.711 17.4797 91.8501C7.6144 81.9891 2.07072 68.6131 2.07072 54.6604C2.07072 40.7121 7.60981 27.3366 17.4709 17.4707C27.3362 7.60967 40.7123 2.07046 54.6606 2.07046C68.6133 2.07046 81.9888 7.61382 91.8503 17.4794C101.711 27.3447 107.251 40.7208 107.246 54.6735C107.229 68.6087 101.686 81.9721 91.8285 91.8282C81.9717 101.685 68.609 107.228 54.6738 107.246Z" fill="#FF001B"/>
<path d="M87.5241 43.2455C87.0031 41.4774 85.8586 39.9571 84.2998 38.9748C85.3077 37.6637 86.8408 35.0415 86.2643 32.7354H86.2686C85.8373 31.215 84.6542 30.0234 83.1339 29.5921C82.8734 29.4939 82.5873 29.5024 82.331 29.6178C82.079 29.7331 81.8826 29.9466 81.7844 30.2071C81.5836 30.7495 81.857 31.3517 82.3993 31.5567C83.2535 31.7702 83.9454 32.4023 84.2358 33.2351C84.6159 34.7427 83.3304 36.8011 82.4549 37.9542V37.95C78.3252 35.8189 73.26 37.0275 70.5401 40.7943C67.2261 41.1616 61.9176 43.062 58.7445 51.0269C50.596 71.8127 29.8398 82.2155 29.631 82.3226C29.1997 82.5234 28.9648 82.9974 29.0673 83.463C29.157 83.9327 29.5584 84.2787 30.0367 84.3H31.7279C48.7637 84.3 75.3277 72.5044 84.5912 60.4092V60.4135C86.7223 57.7443 87.3757 54.1868 86.3337 50.9368C87.6448 48.6007 88.0665 45.8678 87.5241 43.2455ZM82.9374 59.1792C74.5625 70.0311 50.45 81.1174 34.1358 82.1637C40.6871 78.1664 54.2503 68.2197 60.7249 51.7995C62.8987 46.2561 66.6867 43.0573 71.3803 42.8096H71.9952V42.8139C76.8596 42.9078 81.3139 45.5642 83.71 49.7964C85.4268 52.7817 85.1155 56.5143 82.9374 59.1792ZM85.1796 48.3018C82.6086 44.1208 78.2611 41.3448 73.384 40.7683C74.9428 39.3803 77.8938 37.8728 82.2798 40.1661H82.2841C83.8301 40.858 85.0045 42.1776 85.5084 43.7962C85.8501 45.2952 85.7348 46.8668 85.1796 48.3018Z" fill="#FF001B"/>
<path d="M78.4826 48.4857C77.9744 48.7547 77.7736 49.374 78.0213 49.8908C78.1409 50.1257 80.8657 55.8399 73.1185 61.6864L73.1228 61.6821C72.6616 62.0451 72.5847 62.7114 72.9434 63.1684C73.3064 63.6296 73.9727 63.7107 74.4339 63.3477C83.6074 56.3907 79.9773 48.9337 79.9389 48.9337H79.9346C79.8065 48.6731 79.5802 48.481 79.3068 48.3955C79.0292 48.3101 78.7345 48.3447 78.4826 48.4857Z" fill="#FF001B"/>
<path d="M33.1915 70.8939C33.3495 70.9922 33.5332 71.0434 33.7168 71.0391C34.0884 71.0434 34.4343 70.8469 34.6222 70.5266C34.9126 70.0312 34.746 69.3949 34.2549 69.1002C32.7601 68.1436 30.138 64.9064 29.2753 60.4905C28.609 57.0441 28.7371 51.6843 33.2086 45.7091C38.1755 39.1578 36.5911 31.295 35.408 27.5843C38.0772 28.5196 40.4218 30.215 42.143 32.4614C42.301 32.7006 42.5487 32.8671 42.8263 32.9184C43.1081 32.9696 43.3985 32.9056 43.6334 32.739C43.8641 32.5725 44.0178 32.3205 44.0605 32.0386C44.0989 31.7525 44.0221 31.4664 43.847 31.24C41.3657 28.0498 37.8637 25.8076 33.9261 24.898C33.5418 24.8211 33.1446 24.9663 32.9054 25.2781C32.6577 25.5856 32.6065 26.0084 32.7731 26.3671C32.7731 26.4739 37.4238 36.6424 31.5687 44.4109C26.6018 50.9622 26.4694 56.9926 27.2296 60.8443C28.2802 66.2553 31.3723 69.8219 33.1915 70.8939Z" fill="#FF001B"/>
<path d="M49.2707 56.6122C49.4287 56.7104 49.6123 56.7616 49.796 56.7531C50.1632 56.7616 50.5092 56.5737 50.7013 56.2577C50.8423 56.0185 50.885 55.7324 50.8167 55.4591C50.7483 55.19 50.5732 54.9594 50.3341 54.8142C49.3304 53.6526 48.6856 52.2219 48.4849 50.7015C48.1432 49.1684 47.1738 43.8983 49.7959 39.9821C51.8929 36.5826 52.4864 32.4699 51.4359 28.6172C53.819 29.719 57.607 32.2089 57.701 36.9536H57.6968C57.7139 37.5216 58.1794 37.9743 58.7474 37.9743C59.3154 37.953 59.7681 37.4875 59.7681 36.9152C59.5844 28.5275 50.1248 25.91 50.0309 25.8794C49.6466 25.7855 49.2366 25.9093 48.9718 26.2083C48.707 26.5115 48.6429 26.9385 48.801 27.3101C48.801 27.3741 51.4231 33.6777 48.028 38.828C44.9616 43.4275 45.9951 49.4279 46.388 51.1571C46.6656 52.1821 47.5539 55.5859 49.2707 56.6109L49.2707 56.6122Z" fill="#FF001B"/>
</g>
<defs>
<clipPath id="clip0_7_2">
<rect width="109.33" height="109.33" fill="white"/>
</clipPath>
</defs>
</svg>
