<svg width="110" height="110" viewBox="0 0 110 110" fill="none" xmlns="http://www.w3.org/2000/svg">
<path d="M54.733 0.0679932C24.6439 0.0679932 0.0679932 24.5068 0.0679932 54.733C0.0679932 84.9592 24.6439 109.398 54.733 109.398C84.8221 109.398 109.398 84.9592 109.398 54.733C109.398 24.5068 84.8221 0.0679932 54.733 0.0679932ZM103.748 54.733C103.748 67.1647 99.0851 78.6026 91.316 87.2221L73.6589 69.7091L90.3286 60.1025C90.7535 59.821 91.0349 59.3962 91.0349 58.8333V36.6518V36.5083V36.3649C91.0349 36.2214 90.8914 36.0834 90.8914 35.94C90.748 35.7965 90.748 35.6586 90.61 35.5151L90.4666 35.3717H90.3231L71.1093 24.2146C70.6845 23.9332 70.1216 23.9332 69.6968 24.2146L50.483 35.3717H50.3395L50.1961 35.5151C50.0526 35.6586 49.9147 35.7965 49.9147 35.94C49.7712 36.0834 49.7712 36.2214 49.7712 36.3649V36.5083V36.6518V43.8581L45.677 41.4579L22.2425 18.1505C30.8614 10.3814 42.2996 5.71878 54.7316 5.71878C81.7145 5.71878 103.746 27.752 103.746 54.7335L103.748 54.733ZM22.6691 50.6388L37.7822 41.882L49.789 53.8889L39.1947 60.1019L22.6691 50.6388ZM37.7822 62.5021V81.5718L21.3935 72.1087V53.039L37.7822 62.5021ZM70.2713 46.1135L53.8826 36.6504L70.2713 27.1873L86.6599 36.6504L70.2713 46.1135ZM88.2095 39.0507V57.9763L71.6838 67.5884V48.5187L88.2095 39.0507ZM68.8587 48.5193V64.9079L59.8205 55.8697V50.6443V50.5009V50.3574C59.8205 50.2139 59.677 50.076 59.677 49.9325C59.5336 49.7891 59.5336 49.6511 59.3956 49.5077L59.2522 49.3642H59.1087L52.4708 45.5514V39.0513L68.8587 48.5193ZM55.5828 50.6381L54.8765 51.063L53.1826 49.369L55.5828 50.6381ZM40.6067 62.5014L52.0508 55.8635L57.1383 60.951V71.9702L40.607 81.5712L40.6067 62.5014ZM5.7177 54.7323C5.7177 42.3006 10.3803 30.8627 18.1494 22.2432L35.8066 39.9003L19.1368 49.5069H18.9934L18.8499 49.6504C18.7064 49.7938 18.5685 49.9318 18.5685 50.0753C18.425 50.2187 18.425 50.3567 18.425 50.5001V50.6436V50.787V72.963C18.425 73.5258 18.7064 73.9507 19.1313 74.2321L38.3451 85.3891H38.4885H38.632C38.7755 85.3891 38.9134 85.5326 39.0569 85.5326C39.2003 85.5326 39.3383 85.5326 39.4817 85.3891H39.6252H39.7687L58.9824 74.2321C59.4073 73.9507 59.6887 73.5258 59.6887 72.963V65.7566L63.7829 68.1568L87.2231 91.3159C78.6041 99.085 67.166 103.748 54.734 103.748C27.7511 103.748 5.71926 81.7144 5.71926 54.7329L5.7177 54.7323Z" fill="#FFD65B"/>
</svg>
