<?xml version="1.0" encoding="UTF-8"?>
<svg width="128pt" height="128pt" version="1.1" viewBox="0 0 128 128" xmlns="http://www.w3.org/2000/svg">
 <g fill="#007335">
  <path d="m64 6.3984c-15.277 0-29.926 6.0703-40.73 16.871-10.801 10.805-16.871 25.453-16.871 40.73s6.0703 29.926 16.871 40.73c10.805 10.801 25.453 16.871 40.73 16.871s29.926-6.0703 40.73-16.871c10.801-10.805 16.871-25.453 16.871-40.73-0.019531-15.27-6.0938-29.914-16.891-40.711-10.797-10.797-25.441-16.871-40.711-16.891zm0 110c-13.898 0-27.227-5.5195-37.055-15.348-9.8281-9.8281-15.348-23.156-15.348-37.055s5.5195-27.227 15.348-37.055c9.8281-9.8281 23.156-15.348 37.055-15.348s27.227 5.5195 37.055 15.348c9.8281 9.8281 15.348 23.156 15.348 37.055-0.019532 13.891-5.5469 27.211-15.371 37.031-9.8203 9.8242-23.141 15.352-37.031 15.371z"/>
  <path d="m96 38.465c-0.78516-0.42969-1.7109-0.51562-2.5586-0.23828-0.85156 0.27734-1.5469 0.89844-1.9219 1.7109-1.6562 3.1484-3.7734 6.0312-6.2852 8.5508-0.0625 0.0625-0.13672 0.12109-0.21484 0.16406-1.3711-0.71875-2.6484-1.4961-4.0078-2.0977-4.6758-2.1172-9.957-2.4922-14.887-1.0508-6.5625 1.5938-12.074 6.0273-15.039 12.098-1.2812 2.418-2.3164 4.9141-3.5195 7.3477v-0.003907c-0.875 2.0391-2.2773 3.8047-4.0586 5.1211-2.2227 1.4883-4.9531 2.0078-7.5664 1.4453-1.0234-0.16797-2.0352-0.44922-3.0703-0.60156-0.46875-0.023437-0.93359 0.003906-1.3945 0.078125 0.015626 0.5 0.12891 0.99219 0.33203 1.4453 1.3164 2.0508 2.7344 4.0352 4.25 5.9414 3.2461 3.8789 7.4961 6.7891 12.285 8.4102 4.4258 1.5039 9.125 2.0273 13.773 1.5352 6.8828-0.57031 13.555-2.6602 19.535-6.1172 4.8281-2.7812 8.3945-7.3242 9.957-12.672 1.1992-3.7812 1.1992-7.8438 0-11.625 0-0.16797-0.11328-0.32031-0.17969-0.48828-0.0625-0.16797 0 0-0.14063-0.14062-11.52 9.8672-24.449 16.73-39.887 18.152l0.30859-0.14063 0.29297-0.089843h0.003906c10.758-3.6719 20.918-8.8906 30.168-15.5 5.1016-3.582 9.5156-8.0508 13.031-13.195 0.78125-1.2148 1.4961-2.4727 2.1367-3.7656 0.80469-1.5508 0.20703-3.4609-1.3438-4.2734z"/>
 </g>
</svg>
